<svg width="24" height="24" viewBox="0 0 24 24" fill="none" xmlns="http://www.w3.org/2000/svg">
<path d="M7.93952 21.546C7.65831 21.2648 7.50034 20.8833 7.50034 20.4855C7.50034 20.0878 7.65831 19.7063 7.93952 19.425L15.3645 12.0001L7.93952 4.57505C7.66628 4.29215 7.51509 3.91324 7.51851 3.51995C7.52192 3.12665 7.67968 2.75043 7.95779 2.47232C8.2359 2.19421 8.61212 2.03646 9.00542 2.03304C9.39871 2.02962 9.77761 2.18081 10.0605 2.45405L18.546 10.9396C18.8272 11.2208 18.9852 11.6023 18.9852 12.0001C18.9852 12.3978 18.8272 12.7793 18.546 13.0606L10.0605 21.5461C9.77922 21.8273 9.39776 21.9852 9.00002 21.9852C8.60227 21.9852 8.22081 21.8273 7.93952 21.546Z" fill="#5B43D9"/>
</svg>
