<svg width="24" height="24" viewBox="0 0 24 24" fill="none" xmlns="http://www.w3.org/2000/svg">
<path d="M16.0605 2.45395C16.3417 2.73524 16.4997 3.1167 16.4997 3.51445C16.4997 3.9122 16.3417 4.29366 16.0605 4.57495L8.6355 12L16.0605 19.4249C16.3337 19.7079 16.4849 20.0868 16.4815 20.4801C16.4781 20.8733 16.3203 21.2496 16.0422 21.5277C15.7641 21.8058 15.3879 21.9635 14.9946 21.967C14.6013 21.9704 14.2224 21.8192 13.9395 21.5459L5.454 13.0604C5.17279 12.7792 5.01482 12.3977 5.01482 11.9999C5.01482 11.6022 5.17279 11.2207 5.454 10.9394L13.9395 2.45395C14.2208 2.17274 14.6023 2.01477 15 2.01477C15.3977 2.01477 15.7792 2.17274 16.0605 2.45395Z" fill="#5B43D9"/>
</svg>
