<svg width="16" height="16" viewBox="0 0 16 16" fill="none" xmlns="http://www.w3.org/2000/svg">
<path fill-rule="evenodd" clip-rule="evenodd" d="M5.25 5.49699C5.05109 5.49699 4.86032 5.41797 4.71967 5.27732C4.57902 5.13666 4.5 4.9459 4.5 4.74699V3.99999C4.10218 3.99999 3.72064 4.15802 3.43934 4.43933C3.15804 4.72063 3 5.10216 3 5.49999V6.49999H13V5.49999C13 5.10216 12.842 4.72063 12.5607 4.43933C12.2794 4.15802 11.8978 3.99999 11.5 3.99999V4.74999C11.5 4.9489 11.421 5.13966 11.2803 5.28032C11.1397 5.42097 10.9489 5.49999 10.75 5.49999C10.5511 5.49999 10.3603 5.42097 10.2197 5.28032C10.079 5.13966 10 4.9489 10 4.74999V3.99999H6V4.74699C6 4.9459 5.92098 5.13666 5.78033 5.27732C5.63968 5.41797 5.44891 5.49699 5.25 5.49699ZM10 2.49999H6V1.74799C6 1.54907 5.92098 1.35831 5.78033 1.21766C5.63968 1.077 5.44891 0.997986 5.25 0.997986C5.05109 0.997986 4.86032 1.077 4.71967 1.21766C4.57902 1.35831 4.5 1.54907 4.5 1.74799V2.49999C3.70435 2.49999 2.94129 2.81606 2.37868 3.37867C1.81607 3.94127 1.5 4.70434 1.5 5.49999V11.5C1.5 12.2956 1.81607 13.0587 2.37868 13.6213C2.94129 14.1839 3.70435 14.5 4.5 14.5H11.5C12.2956 14.5 13.0587 14.1839 13.6213 13.6213C14.1839 13.0587 14.5 12.2956 14.5 11.5V5.49999C14.5 4.70434 14.1839 3.94127 13.6213 3.37867C13.0587 2.81606 12.2956 2.49999 11.5 2.49999V1.74999C11.5 1.55107 11.421 1.36031 11.2803 1.21966C11.1397 1.079 10.9489 0.999986 10.75 0.999986C10.5511 0.999986 10.3603 1.079 10.2197 1.21966C10.079 1.36031 10 1.55107 10 1.74999V2.49999ZM3 7.99999V11.5C3 11.8978 3.15804 12.2793 3.43934 12.5606C3.72064 12.842 4.10218 13 4.5 13H11.5C11.8978 13 12.2794 12.842 12.5607 12.5606C12.842 12.2793 13 11.8978 13 11.5V7.99999H3Z" fill="#5B43D9"/>
</svg>
